{"accessors" : [{"bufferView" : 0, "byteOffset" : 0, "componentType" : 5123, "count" : 53172, "type" : "SCALAR", "max" : [53171], "min" : [0]}, {"bufferView" : 1, "byteOffset" : 0, "componentType" : 5126, "count" : 53172, "type" : "VEC3", "max" : [0.9471269845962524, 0.7594119906425476, 0.8007379770278931], "min" : [-0.9471780061721802, -0.7573069930076599, -0.8079310059547424], "name" : "POSITION"}, {"bufferView" : 1, "byteOffset" : 12, "componentType" : 5126, "count" : 53172, "type" : "VEC3", "max" : [1.0000044107437134, 0.9999983310699463, 0.9999915361404419], "min" : [-1.0000044107437134, -1.000001311302185, -1.0000044107437134], "name" : "NORMAL"}, {"bufferView" : 1, "byteOffset" : 24, "componentType" : 5126, "count" : 53172, "type" : "VEC2", "max" : [1, 1], "min" : [0, 0], "name" : "TEXCOORD_0"}], "asset" : {"generator" : "Aspose.3D 24.9.1", "version" : "2.0"}, "buffers" : [{"uri" : "data:application/octet-stream;base64,", "byteLength" : 1807856}], "bufferViews" : [{"buffer" : 0, "byteOffset" : 0, "byteLength" : 106344, "target" : 34963}, {"buffer" : 0, "byteOffset" : 106348, "byteLength" : 1701504, "byteStride" : 32, "target" : 34962}], "meshes" : [{"primitives" : [{"attributes" : {"POSITION" : 1, "NORMAL" : 2, "TEXCOORD_0" : 3}, "indices" : 0, "mode" : 4}], "name" : "model"}], "nodes" : [{"matrix" : [100, 0, 0, 0, 0, 99.99999999999972, -7.549790126404325E-06, 0, 0, 7.549790126404325E-06, 99.99999999999972, 0, 0, 0, 0, 1], "mesh" : 0, "name" : "model"}], "scene" : 0, "scenes" : [{"nodes" : [0]}]}